<mxfile host="app.diagrams.net" modified="2023-07-23T18:46:02.021Z" agent="Mozilla/5.0 (Windows NT 10.0; Win64; x64) AppleWebKit/537.36 (KHTML, like Gecko) Chrome/113.0.0.0 Safari/537.36 OPR/99.0.0.0" etag="WwGySjPxZzP2rqHNNjvd" version="21.6.5" type="device">
  <diagram id="C5RBs43oDa-KdzZeNtuy" name="Page-1">
    <mxGraphModel dx="988" dy="534" grid="1" gridSize="10" guides="1" tooltips="1" connect="1" arrows="1" fold="1" page="1" pageScale="1" pageWidth="827" pageHeight="1169" math="0" shadow="0">
      <root>
        <mxCell id="WIyWlLk6GJQsqaUBKTNV-0" />
        <mxCell id="WIyWlLk6GJQsqaUBKTNV-1" parent="WIyWlLk6GJQsqaUBKTNV-0" />
        <mxCell id="vgf3pwnDSPE7Sjgdm0pa-6" value="" style="edgeStyle=orthogonalEdgeStyle;rounded=0;orthogonalLoop=1;jettySize=auto;html=1;" edge="1" parent="WIyWlLk6GJQsqaUBKTNV-1" source="vgf3pwnDSPE7Sjgdm0pa-4" target="vgf3pwnDSPE7Sjgdm0pa-5">
          <mxGeometry relative="1" as="geometry" />
        </mxCell>
        <mxCell id="vgf3pwnDSPE7Sjgdm0pa-4" value="&lt;h2 style=&quot;font-size: 18px;&quot;&gt;Start&lt;/h2&gt;" style="rounded=1;whiteSpace=wrap;html=1;align=center;" vertex="1" parent="WIyWlLk6GJQsqaUBKTNV-1">
          <mxGeometry x="300" y="30" width="100" height="50" as="geometry" />
        </mxCell>
        <mxCell id="vgf3pwnDSPE7Sjgdm0pa-8" value="" style="edgeStyle=orthogonalEdgeStyle;rounded=0;orthogonalLoop=1;jettySize=auto;html=1;" edge="1" parent="WIyWlLk6GJQsqaUBKTNV-1" source="vgf3pwnDSPE7Sjgdm0pa-5">
          <mxGeometry relative="1" as="geometry">
            <mxPoint x="350" y="240" as="targetPoint" />
          </mxGeometry>
        </mxCell>
        <mxCell id="vgf3pwnDSPE7Sjgdm0pa-5" value="&lt;font style=&quot;font-size: 20px;&quot;&gt;Input Payment Detail.&lt;/font&gt;" style="rounded=1;whiteSpace=wrap;html=1;" vertex="1" parent="WIyWlLk6GJQsqaUBKTNV-1">
          <mxGeometry x="220" y="120" width="260" height="60" as="geometry" />
        </mxCell>
        <mxCell id="vgf3pwnDSPE7Sjgdm0pa-12" value="" style="edgeStyle=orthogonalEdgeStyle;rounded=0;orthogonalLoop=1;jettySize=auto;html=1;" edge="1" parent="WIyWlLk6GJQsqaUBKTNV-1" source="vgf3pwnDSPE7Sjgdm0pa-10" target="vgf3pwnDSPE7Sjgdm0pa-11">
          <mxGeometry relative="1" as="geometry" />
        </mxCell>
        <mxCell id="vgf3pwnDSPE7Sjgdm0pa-16" value="" style="edgeStyle=orthogonalEdgeStyle;rounded=0;orthogonalLoop=1;jettySize=auto;html=1;" edge="1" parent="WIyWlLk6GJQsqaUBKTNV-1" source="vgf3pwnDSPE7Sjgdm0pa-10" target="vgf3pwnDSPE7Sjgdm0pa-15">
          <mxGeometry relative="1" as="geometry" />
        </mxCell>
        <mxCell id="vgf3pwnDSPE7Sjgdm0pa-10" value="&lt;font style=&quot;font-size: 20px;&quot;&gt;Validate Payment details&amp;nbsp;&lt;/font&gt;" style="rhombus;whiteSpace=wrap;html=1;" vertex="1" parent="WIyWlLk6GJQsqaUBKTNV-1">
          <mxGeometry x="200" y="240" width="300" height="180" as="geometry" />
        </mxCell>
        <mxCell id="vgf3pwnDSPE7Sjgdm0pa-13" style="edgeStyle=orthogonalEdgeStyle;rounded=0;orthogonalLoop=1;jettySize=auto;html=1;entryX=1;entryY=0.5;entryDx=0;entryDy=0;" edge="1" parent="WIyWlLk6GJQsqaUBKTNV-1" source="vgf3pwnDSPE7Sjgdm0pa-11" target="vgf3pwnDSPE7Sjgdm0pa-5">
          <mxGeometry relative="1" as="geometry">
            <Array as="points">
              <mxPoint x="680" y="150" />
            </Array>
          </mxGeometry>
        </mxCell>
        <mxCell id="vgf3pwnDSPE7Sjgdm0pa-11" value="&lt;font style=&quot;font-size: 20px;&quot;&gt;Re-Enter the card details&lt;/font&gt;" style="rounded=1;whiteSpace=wrap;html=1;" vertex="1" parent="WIyWlLk6GJQsqaUBKTNV-1">
          <mxGeometry x="590" y="300" width="180" height="60" as="geometry" />
        </mxCell>
        <mxCell id="vgf3pwnDSPE7Sjgdm0pa-18" style="edgeStyle=orthogonalEdgeStyle;rounded=0;orthogonalLoop=1;jettySize=auto;html=1;entryX=0;entryY=0.5;entryDx=0;entryDy=0;" edge="1" parent="WIyWlLk6GJQsqaUBKTNV-1" source="vgf3pwnDSPE7Sjgdm0pa-15" target="vgf3pwnDSPE7Sjgdm0pa-10">
          <mxGeometry relative="1" as="geometry">
            <Array as="points">
              <mxPoint x="140" y="520" />
              <mxPoint x="140" y="330" />
            </Array>
          </mxGeometry>
        </mxCell>
        <mxCell id="vgf3pwnDSPE7Sjgdm0pa-20" value="" style="edgeStyle=orthogonalEdgeStyle;rounded=0;orthogonalLoop=1;jettySize=auto;html=1;" edge="1" parent="WIyWlLk6GJQsqaUBKTNV-1" source="vgf3pwnDSPE7Sjgdm0pa-15" target="vgf3pwnDSPE7Sjgdm0pa-19">
          <mxGeometry relative="1" as="geometry" />
        </mxCell>
        <mxCell id="vgf3pwnDSPE7Sjgdm0pa-15" value="&lt;font style=&quot;font-size: 20px;&quot;&gt;Process Payment&lt;/font&gt;" style="rhombus;whiteSpace=wrap;html=1;" vertex="1" parent="WIyWlLk6GJQsqaUBKTNV-1">
          <mxGeometry x="235" y="455" width="230" height="130" as="geometry" />
        </mxCell>
        <mxCell id="vgf3pwnDSPE7Sjgdm0pa-22" value="" style="edgeStyle=orthogonalEdgeStyle;rounded=0;orthogonalLoop=1;jettySize=auto;html=1;" edge="1" parent="WIyWlLk6GJQsqaUBKTNV-1" source="vgf3pwnDSPE7Sjgdm0pa-19" target="vgf3pwnDSPE7Sjgdm0pa-21">
          <mxGeometry relative="1" as="geometry" />
        </mxCell>
        <mxCell id="vgf3pwnDSPE7Sjgdm0pa-19" value="&lt;font style=&quot;font-size: 20px;&quot;&gt;Connect to payment gateway&lt;/font&gt;" style="rounded=1;whiteSpace=wrap;html=1;" vertex="1" parent="WIyWlLk6GJQsqaUBKTNV-1">
          <mxGeometry x="195" y="620" width="310" height="60" as="geometry" />
        </mxCell>
        <mxCell id="vgf3pwnDSPE7Sjgdm0pa-24" value="" style="edgeStyle=orthogonalEdgeStyle;rounded=0;orthogonalLoop=1;jettySize=auto;html=1;" edge="1" parent="WIyWlLk6GJQsqaUBKTNV-1" source="vgf3pwnDSPE7Sjgdm0pa-21" target="vgf3pwnDSPE7Sjgdm0pa-23">
          <mxGeometry relative="1" as="geometry" />
        </mxCell>
        <mxCell id="vgf3pwnDSPE7Sjgdm0pa-21" value="&lt;font style=&quot;font-size: 20px;&quot;&gt;Authorize Payment&lt;/font&gt;" style="rounded=1;whiteSpace=wrap;html=1;" vertex="1" parent="WIyWlLk6GJQsqaUBKTNV-1">
          <mxGeometry x="195" y="720" width="310" height="60" as="geometry" />
        </mxCell>
        <mxCell id="vgf3pwnDSPE7Sjgdm0pa-27" value="" style="edgeStyle=orthogonalEdgeStyle;rounded=0;orthogonalLoop=1;jettySize=auto;html=1;" edge="1" parent="WIyWlLk6GJQsqaUBKTNV-1" source="vgf3pwnDSPE7Sjgdm0pa-23" target="vgf3pwnDSPE7Sjgdm0pa-26">
          <mxGeometry relative="1" as="geometry" />
        </mxCell>
        <mxCell id="vgf3pwnDSPE7Sjgdm0pa-23" value="&lt;font style=&quot;font-size: 20px;&quot;&gt;Check Authorization Details&lt;/font&gt;" style="rounded=1;whiteSpace=wrap;html=1;" vertex="1" parent="WIyWlLk6GJQsqaUBKTNV-1">
          <mxGeometry x="195" y="820" width="310" height="60" as="geometry" />
        </mxCell>
        <mxCell id="vgf3pwnDSPE7Sjgdm0pa-29" value="" style="edgeStyle=orthogonalEdgeStyle;rounded=0;orthogonalLoop=1;jettySize=auto;html=1;" edge="1" parent="WIyWlLk6GJQsqaUBKTNV-1" source="vgf3pwnDSPE7Sjgdm0pa-26" target="vgf3pwnDSPE7Sjgdm0pa-28">
          <mxGeometry relative="1" as="geometry" />
        </mxCell>
        <mxCell id="vgf3pwnDSPE7Sjgdm0pa-26" value="&lt;font style=&quot;font-size: 20px;&quot;&gt;Process Payment&lt;/font&gt;" style="rounded=1;whiteSpace=wrap;html=1;" vertex="1" parent="WIyWlLk6GJQsqaUBKTNV-1">
          <mxGeometry x="195" y="920" width="310" height="60" as="geometry" />
        </mxCell>
        <mxCell id="vgf3pwnDSPE7Sjgdm0pa-31" value="" style="edgeStyle=orthogonalEdgeStyle;rounded=0;orthogonalLoop=1;jettySize=auto;html=1;" edge="1" parent="WIyWlLk6GJQsqaUBKTNV-1" source="vgf3pwnDSPE7Sjgdm0pa-28" target="vgf3pwnDSPE7Sjgdm0pa-30">
          <mxGeometry relative="1" as="geometry" />
        </mxCell>
        <mxCell id="vgf3pwnDSPE7Sjgdm0pa-28" value="&lt;font style=&quot;font-size: 20px;&quot;&gt;Generate Receipt&lt;/font&gt;" style="rounded=1;whiteSpace=wrap;html=1;" vertex="1" parent="WIyWlLk6GJQsqaUBKTNV-1">
          <mxGeometry x="195" y="1020" width="310" height="60" as="geometry" />
        </mxCell>
        <mxCell id="vgf3pwnDSPE7Sjgdm0pa-30" value="&lt;font style=&quot;font-size: 20px;&quot;&gt;END&lt;/font&gt;" style="rounded=1;whiteSpace=wrap;html=1;" vertex="1" parent="WIyWlLk6GJQsqaUBKTNV-1">
          <mxGeometry x="290" y="1100" width="120" height="60" as="geometry" />
        </mxCell>
      </root>
    </mxGraphModel>
  </diagram>
</mxfile>
